<svg xmlns="http://www.w3.org/2000/svg" xmlns:xlink="http://www.w3.org/1999/xlink" width="500" zoomAndPan="magnify" viewBox="0 0 375 374.999991" height="500" preserveAspectRatio="xMidYMid meet" version="1.0"><defs><g/></defs><rect x="-37.5" width="450" fill="#ffffff" y="-37.499999" height="449.999989" fill-opacity="1"/><rect x="-37.5" width="450" fill="#ffffff" y="-37.499999" height="449.999989" fill-opacity="1"/><g fill="#007b7f" fill-opacity="1"><g transform="translate(9.215724, 218.892936)"><g><path d="M 3.15625 0 L 3.15625 -71.4375 L 17.46875 -71.4375 L 17.46875 -12.140625 L 32.1875 -12.140625 L 32.1875 0 Z M 3.15625 0 "/></g></g></g><g fill="#007b7f" fill-opacity="1"><g transform="translate(40.653048, 218.892936)"><g><path d="M 2.5 0 L 2.5 -71.4375 L 16.296875 -71.4375 L 16.296875 0 Z M 2.5 0 "/></g></g></g><g fill="#007b7f" fill-opacity="1"><g transform="translate(57.951816, 218.892936)"><g><path d="M 3.15625 0 L 3.15625 -71.4375 L 17.875 -71.4375 L 24.453125 -37.265625 L 24.453125 -71.4375 L 38.265625 -71.4375 L 38.265625 0 L 24.28125 0 L 17.140625 -35.765625 L 17.140625 0 Z M 3.15625 0 "/></g></g></g><g fill="#ff7428" fill-opacity="1"><g transform="translate(97.797749, 218.892936)"><g><path d="M 17.875 0.671875 C 12.71875 0.671875 8.878906 -1.144531 6.359375 -4.78125 C 3.835938 -8.414062 2.578125 -13.921875 2.578125 -21.296875 L 2.578125 -52.0625 C 2.578125 -58.664062 4.046875 -63.65625 6.984375 -67.03125 C 9.921875 -70.414062 14.300781 -72.109375 20.125 -72.109375 C 24.84375 -72.109375 28.503906 -71.164062 31.109375 -69.28125 C 33.710938 -67.394531 35.515625 -64.648438 36.515625 -61.046875 C 37.515625 -57.441406 38.015625 -52.8125 38.015625 -47.15625 L 24.03125 -47.15625 L 24.03125 -53.5625 C 24.03125 -55.28125 23.796875 -56.609375 23.328125 -57.546875 C 22.859375 -58.492188 22.015625 -58.96875 20.796875 -58.96875 C 18.078125 -58.96875 16.71875 -57.191406 16.71875 -53.640625 L 16.71875 -19.046875 C 16.71875 -16.878906 16.992188 -15.238281 17.546875 -14.125 C 18.097656 -13.019531 19.066406 -12.46875 20.453125 -12.46875 C 21.847656 -12.46875 22.820312 -13.019531 23.375 -14.125 C 23.925781 -15.238281 24.203125 -16.878906 24.203125 -19.046875 L 24.203125 -29.28125 L 20.375 -29.28125 L 20.375 -41.578125 L 37.84375 -41.578125 L 37.84375 0 L 32.109375 0 L 29.6875 -5.984375 C 27.132812 -1.546875 23.195312 0.671875 17.875 0.671875 Z M 17.875 0.671875 "/></g></g></g><g fill="#ff7428" fill-opacity="1"><g transform="translate(136.553856, 218.892936)"><g><path d="M 20.203125 0.671875 C 14.441406 0.671875 10.0625 -1.085938 7.0625 -4.609375 C 4.070312 -8.128906 2.578125 -13.082031 2.578125 -19.46875 L 2.578125 -53.484375 C 2.578125 -59.640625 4.070312 -64.28125 7.0625 -67.40625 C 10.0625 -70.539062 14.441406 -72.109375 20.203125 -72.109375 C 25.972656 -72.109375 30.351562 -70.539062 33.34375 -67.40625 C 36.34375 -64.28125 37.84375 -59.640625 37.84375 -53.484375 L 37.84375 -19.46875 C 37.84375 -13.03125 36.34375 -8.0625 33.34375 -4.5625 C 30.351562 -1.070312 25.972656 0.671875 20.203125 0.671875 Z M 20.203125 -12.46875 C 21.484375 -12.46875 22.34375 -13.019531 22.78125 -14.125 C 23.226562 -15.238281 23.453125 -16.796875 23.453125 -18.796875 L 23.453125 -53.734375 C 23.453125 -55.285156 23.242188 -56.546875 22.828125 -57.515625 C 22.410156 -58.484375 21.566406 -58.96875 20.296875 -58.96875 C 17.910156 -58.96875 16.71875 -57.164062 16.71875 -53.5625 L 16.71875 -18.71875 C 16.71875 -16.664062 16.96875 -15.109375 17.46875 -14.046875 C 17.96875 -12.992188 18.878906 -12.46875 20.203125 -12.46875 Z M 20.203125 -12.46875 "/></g></g></g><g fill="#007b7f" fill-opacity="1"><g transform="translate(173.722403, 219.107777)"><g><path d="M 3.15625 0 L 3.15625 -71.4375 L 17.46875 -71.4375 L 17.46875 -12.140625 L 32.1875 -12.140625 L 32.1875 0 Z M 3.15625 0 "/></g></g></g><g fill="#007b7f" fill-opacity="1"><g transform="translate(206.073817, 219.107777)"><g><path d="M 1.25 0 L 8.15625 -71.4375 L 32.359375 -71.4375 L 39.171875 0 L 25.609375 0 L 24.625 -11.5625 L 15.96875 -11.5625 L 15.140625 0 Z M 17.046875 -22.953125 L 23.53125 -22.953125 L 20.375 -59.296875 L 19.71875 -59.296875 Z M 17.046875 -22.953125 "/></g></g></g><g fill="#007b7f" fill-opacity="1"><g transform="translate(291.404703, 191.437711)"><g><path d="M 61.9375 -35.75 L 72.53125 -19.125 C 75.269531 -14.8125 76.132812 -10.820312 75.125 -7.15625 C 74.113281 -3.488281 71.289062 -0.140625 66.65625 2.890625 L 38.53125 21 C 32.625 24.832031 27.503906 26.648438 23.171875 26.453125 C 18.835938 26.253906 15.125 23.722656 12.03125 18.859375 L 1.703125 2.65625 Z M 21.4375 10.109375 C 22.832031 12.304688 24.609375 12.71875 26.765625 11.34375 L 57.828125 -8.453125 C 59.179688 -9.316406 60.128906 -10.070312 60.671875 -10.71875 C 61.222656 -11.363281 61.429688 -12.039062 61.296875 -12.75 C 61.171875 -13.46875 60.738281 -14.410156 60 -15.578125 L 59.15625 -16.90625 L 20.09375 8 Z M 21.4375 10.109375 "/></g></g></g><g fill="#007b7f" fill-opacity="1"><g transform="translate(244.823555, 213.890318)"><g><path d="M 3.015625 0.921875 L 23.921875 -67.390625 L 38 -63.078125 L 34.28125 -28.484375 L 44.28125 -61.15625 L 57.5 -57.109375 L 36.59375 11.203125 L 23.21875 7.109375 L 26.859375 -29.1875 L 16.390625 5.015625 Z M 3.015625 0.921875 "/></g></g></g><g fill="#007b7f" fill-opacity="1"><g transform="translate(11.356717, 230.427477)"><g><path d="M 4.78125 -5.640625 C 4.925781 -5.566406 5.007812 -5.453125 5.03125 -5.296875 C 5.0625 -5.140625 5.023438 -4.992188 4.921875 -4.859375 C 4.847656 -4.753906 4.753906 -4.695312 4.640625 -4.6875 C 4.523438 -4.675781 4.40625 -4.703125 4.28125 -4.765625 C 4.144531 -4.828125 4.003906 -4.875 3.859375 -4.90625 C 3.710938 -4.9375 3.554688 -4.953125 3.390625 -4.953125 C 3.085938 -4.953125 2.8125 -4.90625 2.5625 -4.8125 C 2.320312 -4.71875 2.117188 -4.578125 1.953125 -4.390625 C 1.785156 -4.210938 1.65625 -4.003906 1.5625 -3.765625 C 1.476562 -3.523438 1.4375 -3.257812 1.4375 -2.96875 C 1.4375 -2.625 1.484375 -2.320312 1.578125 -2.0625 C 1.679688 -1.8125 1.820312 -1.597656 2 -1.421875 C 2.175781 -1.253906 2.378906 -1.128906 2.609375 -1.046875 C 2.847656 -0.972656 3.109375 -0.9375 3.390625 -0.9375 C 3.535156 -0.9375 3.6875 -0.945312 3.84375 -0.96875 C 4 -1 4.144531 -1.050781 4.28125 -1.125 C 4.40625 -1.1875 4.523438 -1.207031 4.640625 -1.1875 C 4.753906 -1.164062 4.847656 -1.101562 4.921875 -1 C 5.035156 -0.863281 5.078125 -0.71875 5.046875 -0.5625 C 5.015625 -0.414062 4.929688 -0.3125 4.796875 -0.25 C 4.648438 -0.175781 4.5 -0.113281 4.34375 -0.0625 C 4.1875 -0.0078125 4.03125 0.0234375 3.875 0.046875 C 3.71875 0.0664062 3.554688 0.078125 3.390625 0.078125 C 2.984375 0.078125 2.597656 0.015625 2.234375 -0.109375 C 1.867188 -0.242188 1.539062 -0.4375 1.25 -0.6875 C 0.96875 -0.9375 0.742188 -1.25 0.578125 -1.625 C 0.421875 -2.007812 0.34375 -2.457031 0.34375 -2.96875 C 0.34375 -3.394531 0.414062 -3.789062 0.5625 -4.15625 C 0.707031 -4.53125 0.914062 -4.847656 1.1875 -5.109375 C 1.46875 -5.378906 1.796875 -5.585938 2.171875 -5.734375 C 2.546875 -5.890625 2.953125 -5.96875 3.390625 -5.96875 C 3.640625 -5.96875 3.878906 -5.9375 4.109375 -5.875 C 4.347656 -5.820312 4.570312 -5.742188 4.78125 -5.640625 Z M 4.78125 -5.640625 "/></g></g></g><g fill="#007b7f" fill-opacity="1"><g transform="translate(16.456872, 230.427477)"><g><path d="M 6.09375 -2.96875 C 6.09375 -2.539062 6.019531 -2.144531 5.875 -1.78125 C 5.738281 -1.414062 5.539062 -1.09375 5.28125 -0.8125 C 5.019531 -0.53125 4.710938 -0.3125 4.359375 -0.15625 C 4.015625 0 3.628906 0.078125 3.203125 0.078125 C 2.785156 0.078125 2.398438 0 2.046875 -0.15625 C 1.703125 -0.3125 1.398438 -0.53125 1.140625 -0.8125 C 0.890625 -1.09375 0.691406 -1.414062 0.546875 -1.78125 C 0.410156 -2.144531 0.34375 -2.539062 0.34375 -2.96875 C 0.34375 -3.382812 0.410156 -3.773438 0.546875 -4.140625 C 0.691406 -4.515625 0.890625 -4.835938 1.140625 -5.109375 C 1.398438 -5.390625 1.703125 -5.609375 2.046875 -5.765625 C 2.398438 -5.929688 2.785156 -6.015625 3.203125 -6.015625 C 3.628906 -6.015625 4.015625 -5.929688 4.359375 -5.765625 C 4.710938 -5.609375 5.019531 -5.390625 5.28125 -5.109375 C 5.539062 -4.835938 5.738281 -4.515625 5.875 -4.140625 C 6.019531 -3.773438 6.09375 -3.382812 6.09375 -2.96875 Z M 4.984375 -2.96875 C 4.984375 -3.34375 4.90625 -3.679688 4.75 -3.984375 C 4.601562 -4.296875 4.394531 -4.539062 4.125 -4.71875 C 3.863281 -4.90625 3.554688 -5 3.203125 -5 C 2.859375 -5 2.550781 -4.90625 2.28125 -4.71875 C 2.019531 -4.539062 1.8125 -4.300781 1.65625 -4 C 1.507812 -3.695312 1.4375 -3.351562 1.4375 -2.96875 C 1.4375 -2.582031 1.507812 -2.234375 1.65625 -1.921875 C 1.8125 -1.617188 2.019531 -1.378906 2.28125 -1.203125 C 2.550781 -1.023438 2.859375 -0.9375 3.203125 -0.9375 C 3.554688 -0.9375 3.863281 -1.023438 4.125 -1.203125 C 4.394531 -1.378906 4.601562 -1.617188 4.75 -1.921875 C 4.90625 -2.234375 4.984375 -2.582031 4.984375 -2.96875 Z M 4.984375 -2.96875 "/></g></g></g><g fill="#007b7f" fill-opacity="1"><g transform="translate(22.675338, 230.427477)"><g><path d="M 4.84375 -5.9375 C 4.988281 -5.9375 5.101562 -5.882812 5.1875 -5.78125 C 5.28125 -5.6875 5.328125 -5.566406 5.328125 -5.421875 L 5.328125 -2.359375 C 5.328125 -1.890625 5.226562 -1.472656 5.03125 -1.109375 C 4.832031 -0.742188 4.554688 -0.457031 4.203125 -0.25 C 3.859375 -0.0507812 3.453125 0.046875 2.984375 0.046875 C 2.523438 0.046875 2.117188 -0.0507812 1.765625 -0.25 C 1.410156 -0.457031 1.132812 -0.742188 0.9375 -1.109375 C 0.738281 -1.472656 0.640625 -1.890625 0.640625 -2.359375 L 0.640625 -5.421875 C 0.640625 -5.566406 0.6875 -5.6875 0.78125 -5.78125 C 0.882812 -5.882812 1.015625 -5.9375 1.171875 -5.9375 C 1.304688 -5.9375 1.425781 -5.882812 1.53125 -5.78125 C 1.632812 -5.6875 1.6875 -5.566406 1.6875 -5.421875 L 1.6875 -2.359375 C 1.6875 -2.078125 1.742188 -1.832031 1.859375 -1.625 C 1.984375 -1.414062 2.144531 -1.253906 2.34375 -1.140625 C 2.550781 -1.023438 2.765625 -0.96875 2.984375 -0.96875 C 3.234375 -0.96875 3.460938 -1.023438 3.671875 -1.140625 C 3.878906 -1.253906 4.046875 -1.414062 4.171875 -1.625 C 4.304688 -1.832031 4.375 -2.078125 4.375 -2.359375 L 4.375 -5.421875 C 4.375 -5.566406 4.414062 -5.6875 4.5 -5.78125 C 4.582031 -5.882812 4.695312 -5.9375 4.84375 -5.9375 Z M 4.84375 -5.9375 "/></g></g></g><g fill="#007b7f" fill-opacity="1"><g transform="translate(28.436309, 230.427477)"><g><path d="M 1.25 0 C 1.082031 0 0.9375 -0.046875 0.8125 -0.140625 C 0.695312 -0.242188 0.640625 -0.367188 0.640625 -0.515625 L 0.640625 -5.40625 C 0.640625 -5.550781 0.6875 -5.671875 0.78125 -5.765625 C 0.882812 -5.867188 1.007812 -5.921875 1.15625 -5.921875 L 3.59375 -5.921875 C 3.882812 -5.921875 4.15625 -5.84375 4.40625 -5.6875 C 4.664062 -5.539062 4.875 -5.328125 5.03125 -5.046875 C 5.195312 -4.773438 5.28125 -4.460938 5.28125 -4.109375 C 5.28125 -3.890625 5.234375 -3.675781 5.140625 -3.46875 C 5.054688 -3.269531 4.9375 -3.085938 4.78125 -2.921875 C 4.632812 -2.765625 4.46875 -2.640625 4.28125 -2.546875 L 4.296875 -2.75 C 4.453125 -2.65625 4.582031 -2.550781 4.6875 -2.4375 C 4.789062 -2.320312 4.867188 -2.195312 4.921875 -2.0625 C 4.984375 -1.9375 5.019531 -1.796875 5.03125 -1.640625 C 5.0625 -1.503906 5.078125 -1.378906 5.078125 -1.265625 C 5.085938 -1.160156 5.101562 -1.070312 5.125 -1 C 5.15625 -0.925781 5.207031 -0.867188 5.28125 -0.828125 C 5.40625 -0.753906 5.484375 -0.648438 5.515625 -0.515625 C 5.546875 -0.378906 5.515625 -0.253906 5.421875 -0.140625 C 5.359375 -0.0664062 5.273438 -0.0195312 5.171875 0 C 5.078125 0.0195312 4.984375 0.0195312 4.890625 0 C 4.796875 -0.0195312 4.71875 -0.046875 4.65625 -0.078125 C 4.5625 -0.140625 4.460938 -0.222656 4.359375 -0.328125 C 4.265625 -0.441406 4.1875 -0.59375 4.125 -0.78125 C 4.070312 -0.96875 4.046875 -1.207031 4.046875 -1.5 C 4.046875 -1.59375 4.03125 -1.679688 4 -1.765625 C 3.96875 -1.847656 3.921875 -1.914062 3.859375 -1.96875 C 3.796875 -2.03125 3.710938 -2.078125 3.609375 -2.109375 C 3.515625 -2.140625 3.40625 -2.15625 3.28125 -2.15625 L 1.5625 -2.15625 L 1.6875 -2.359375 L 1.6875 -0.515625 C 1.6875 -0.367188 1.644531 -0.242188 1.5625 -0.140625 C 1.488281 -0.046875 1.382812 0 1.25 0 Z M 1.578125 -3.03125 L 3.546875 -3.03125 C 3.648438 -3.03125 3.75 -3.078125 3.84375 -3.171875 C 3.9375 -3.265625 4.015625 -3.390625 4.078125 -3.546875 C 4.140625 -3.710938 4.171875 -3.890625 4.171875 -4.078125 C 4.171875 -4.328125 4.101562 -4.535156 3.96875 -4.703125 C 3.84375 -4.867188 3.703125 -4.953125 3.546875 -4.953125 L 1.59375 -4.953125 L 1.6875 -5.21875 L 1.6875 -2.828125 Z M 1.578125 -3.03125 "/></g></g></g><g fill="#007b7f" fill-opacity="1"><g transform="translate(34.044795, 230.427477)"><g><path d="M 2.546875 0.078125 C 2.148438 0.078125 1.789062 0.03125 1.46875 -0.0625 C 1.15625 -0.164062 0.851562 -0.335938 0.5625 -0.578125 C 0.488281 -0.640625 0.429688 -0.710938 0.390625 -0.796875 C 0.359375 -0.878906 0.34375 -0.957031 0.34375 -1.03125 C 0.34375 -1.164062 0.390625 -1.28125 0.484375 -1.375 C 0.578125 -1.476562 0.691406 -1.53125 0.828125 -1.53125 C 0.929688 -1.53125 1.03125 -1.492188 1.125 -1.421875 C 1.332031 -1.242188 1.539062 -1.109375 1.75 -1.015625 C 1.96875 -0.929688 2.234375 -0.890625 2.546875 -0.890625 C 2.753906 -0.890625 2.941406 -0.921875 3.109375 -0.984375 C 3.285156 -1.046875 3.425781 -1.132812 3.53125 -1.25 C 3.644531 -1.363281 3.703125 -1.488281 3.703125 -1.625 C 3.703125 -1.789062 3.648438 -1.929688 3.546875 -2.046875 C 3.441406 -2.171875 3.285156 -2.273438 3.078125 -2.359375 C 2.867188 -2.441406 2.601562 -2.503906 2.28125 -2.546875 C 1.976562 -2.585938 1.710938 -2.65625 1.484375 -2.75 C 1.253906 -2.84375 1.0625 -2.960938 0.90625 -3.109375 C 0.75 -3.253906 0.628906 -3.421875 0.546875 -3.609375 C 0.472656 -3.804688 0.4375 -4.03125 0.4375 -4.28125 C 0.4375 -4.644531 0.53125 -4.957031 0.71875 -5.21875 C 0.90625 -5.476562 1.160156 -5.675781 1.484375 -5.8125 C 1.804688 -5.945312 2.160156 -6.015625 2.546875 -6.015625 C 2.910156 -6.015625 3.25 -5.957031 3.5625 -5.84375 C 3.882812 -5.738281 4.144531 -5.597656 4.34375 -5.421875 C 4.5 -5.296875 4.578125 -5.148438 4.578125 -4.984375 C 4.578125 -4.859375 4.53125 -4.742188 4.4375 -4.640625 C 4.34375 -4.535156 4.226562 -4.484375 4.09375 -4.484375 C 4.007812 -4.484375 3.9375 -4.507812 3.875 -4.5625 C 3.78125 -4.644531 3.65625 -4.71875 3.5 -4.78125 C 3.351562 -4.851562 3.191406 -4.910156 3.015625 -4.953125 C 2.847656 -5.003906 2.691406 -5.03125 2.546875 -5.03125 C 2.304688 -5.03125 2.101562 -5 1.9375 -4.9375 C 1.769531 -4.882812 1.644531 -4.800781 1.5625 -4.6875 C 1.476562 -4.582031 1.4375 -4.457031 1.4375 -4.3125 C 1.4375 -4.144531 1.484375 -4.003906 1.578125 -3.890625 C 1.679688 -3.785156 1.820312 -3.703125 2 -3.640625 C 2.1875 -3.578125 2.410156 -3.519531 2.671875 -3.46875 C 3.015625 -3.40625 3.3125 -3.328125 3.5625 -3.234375 C 3.820312 -3.148438 4.035156 -3.039062 4.203125 -2.90625 C 4.378906 -2.78125 4.507812 -2.617188 4.59375 -2.421875 C 4.675781 -2.222656 4.71875 -1.976562 4.71875 -1.6875 C 4.71875 -1.320312 4.613281 -1.003906 4.40625 -0.734375 C 4.207031 -0.472656 3.941406 -0.269531 3.609375 -0.125 C 3.273438 0.0078125 2.921875 0.078125 2.546875 0.078125 Z M 2.546875 0.078125 "/></g></g></g><g fill="#007b7f" fill-opacity="1"><g transform="translate(38.890792, 230.427477)"><g><path d="M 1.15625 -5.921875 L 3.984375 -5.921875 C 4.128906 -5.921875 4.25 -5.875 4.34375 -5.78125 C 4.445312 -5.695312 4.5 -5.578125 4.5 -5.421875 C 4.5 -5.285156 4.445312 -5.171875 4.34375 -5.078125 C 4.25 -4.992188 4.128906 -4.953125 3.984375 -4.953125 L 1.625 -4.953125 L 1.6875 -5.09375 L 1.6875 -3.453125 L 1.625 -3.515625 L 3.609375 -3.515625 C 3.753906 -3.515625 3.875 -3.46875 3.96875 -3.375 C 4.070312 -3.28125 4.125 -3.160156 4.125 -3.015625 C 4.125 -2.867188 4.070312 -2.753906 3.96875 -2.671875 C 3.875 -2.585938 3.753906 -2.546875 3.609375 -2.546875 L 1.65625 -2.546875 L 1.6875 -2.609375 L 1.6875 -0.890625 L 1.625 -0.96875 L 3.984375 -0.96875 C 4.128906 -0.96875 4.25 -0.914062 4.34375 -0.8125 C 4.445312 -0.71875 4.5 -0.609375 4.5 -0.484375 C 4.5 -0.335938 4.445312 -0.21875 4.34375 -0.125 C 4.25 -0.0390625 4.128906 0 3.984375 0 L 1.15625 0 C 1.007812 0 0.882812 -0.046875 0.78125 -0.140625 C 0.6875 -0.242188 0.640625 -0.367188 0.640625 -0.515625 L 0.640625 -5.40625 C 0.640625 -5.550781 0.6875 -5.671875 0.78125 -5.765625 C 0.882812 -5.867188 1.007812 -5.921875 1.15625 -5.921875 Z M 1.15625 -5.921875 "/></g></g></g><g fill="#007b7f" fill-opacity="1"><g transform="translate(43.524988, 230.427477)"><g><path d="M 3.28125 -5.921875 C 3.820312 -5.921875 4.222656 -5.796875 4.484375 -5.546875 C 4.753906 -5.296875 4.890625 -4.921875 4.890625 -4.421875 C 4.890625 -4.148438 4.820312 -3.914062 4.6875 -3.71875 C 4.5625 -3.519531 4.375 -3.363281 4.125 -3.25 C 3.875 -3.144531 3.5625 -3.09375 3.1875 -3.09375 L 3.21875 -3.46875 C 3.394531 -3.46875 3.59375 -3.441406 3.8125 -3.390625 C 4.039062 -3.347656 4.257812 -3.265625 4.46875 -3.140625 C 4.6875 -3.023438 4.863281 -2.859375 5 -2.640625 C 5.132812 -2.421875 5.203125 -2.140625 5.203125 -1.796875 C 5.203125 -1.429688 5.140625 -1.128906 5.015625 -0.890625 C 4.898438 -0.648438 4.742188 -0.460938 4.546875 -0.328125 C 4.347656 -0.203125 4.132812 -0.113281 3.90625 -0.0625 C 3.6875 -0.0195312 3.472656 0 3.265625 0 L 1.15625 0 C 1.007812 0 0.882812 -0.046875 0.78125 -0.140625 C 0.6875 -0.242188 0.640625 -0.367188 0.640625 -0.515625 L 0.640625 -5.40625 C 0.640625 -5.550781 0.6875 -5.671875 0.78125 -5.765625 C 0.882812 -5.867188 1.007812 -5.921875 1.15625 -5.921875 Z M 3.140625 -4.921875 L 1.625 -4.921875 L 1.734375 -5.0625 L 1.734375 -3.53125 L 1.640625 -3.609375 L 3.15625 -3.609375 C 3.320312 -3.609375 3.46875 -3.660156 3.59375 -3.765625 C 3.726562 -3.867188 3.796875 -4.023438 3.796875 -4.234375 C 3.796875 -4.472656 3.734375 -4.644531 3.609375 -4.75 C 3.492188 -4.863281 3.335938 -4.921875 3.140625 -4.921875 Z M 3.203125 -2.609375 L 1.65625 -2.609375 L 1.734375 -2.671875 L 1.734375 -0.890625 L 1.65625 -0.96875 L 3.265625 -0.96875 C 3.523438 -0.96875 3.726562 -1.035156 3.875 -1.171875 C 4.03125 -1.316406 4.109375 -1.523438 4.109375 -1.796875 C 4.109375 -2.054688 4.054688 -2.242188 3.953125 -2.359375 C 3.847656 -2.472656 3.722656 -2.539062 3.578125 -2.5625 C 3.441406 -2.59375 3.316406 -2.609375 3.203125 -2.609375 Z M 3.203125 -2.609375 "/></g></g></g><g fill="#007b7f" fill-opacity="1"><g transform="translate(48.862369, 230.427477)"><g><path d="M 6.09375 -2.96875 C 6.09375 -2.539062 6.019531 -2.144531 5.875 -1.78125 C 5.738281 -1.414062 5.539062 -1.09375 5.28125 -0.8125 C 5.019531 -0.53125 4.710938 -0.3125 4.359375 -0.15625 C 4.015625 0 3.628906 0.078125 3.203125 0.078125 C 2.785156 0.078125 2.398438 0 2.046875 -0.15625 C 1.703125 -0.3125 1.398438 -0.53125 1.140625 -0.8125 C 0.890625 -1.09375 0.691406 -1.414062 0.546875 -1.78125 C 0.410156 -2.144531 0.34375 -2.539062 0.34375 -2.96875 C 0.34375 -3.382812 0.410156 -3.773438 0.546875 -4.140625 C 0.691406 -4.515625 0.890625 -4.835938 1.140625 -5.109375 C 1.398438 -5.390625 1.703125 -5.609375 2.046875 -5.765625 C 2.398438 -5.929688 2.785156 -6.015625 3.203125 -6.015625 C 3.628906 -6.015625 4.015625 -5.929688 4.359375 -5.765625 C 4.710938 -5.609375 5.019531 -5.390625 5.28125 -5.109375 C 5.539062 -4.835938 5.738281 -4.515625 5.875 -4.140625 C 6.019531 -3.773438 6.09375 -3.382812 6.09375 -2.96875 Z M 4.984375 -2.96875 C 4.984375 -3.34375 4.90625 -3.679688 4.75 -3.984375 C 4.601562 -4.296875 4.394531 -4.539062 4.125 -4.71875 C 3.863281 -4.90625 3.554688 -5 3.203125 -5 C 2.859375 -5 2.550781 -4.90625 2.28125 -4.71875 C 2.019531 -4.539062 1.8125 -4.300781 1.65625 -4 C 1.507812 -3.695312 1.4375 -3.351562 1.4375 -2.96875 C 1.4375 -2.582031 1.507812 -2.234375 1.65625 -1.921875 C 1.8125 -1.617188 2.019531 -1.378906 2.28125 -1.203125 C 2.550781 -1.023438 2.859375 -0.9375 3.203125 -0.9375 C 3.554688 -0.9375 3.863281 -1.023438 4.125 -1.203125 C 4.394531 -1.378906 4.601562 -1.617188 4.75 -1.921875 C 4.90625 -2.234375 4.984375 -2.582031 4.984375 -2.96875 Z M 4.984375 -2.96875 "/></g></g></g><g fill="#007b7f" fill-opacity="1"><g transform="translate(55.080835, 230.427477)"><g><path d="M 6.09375 -2.96875 C 6.09375 -2.539062 6.019531 -2.144531 5.875 -1.78125 C 5.738281 -1.414062 5.539062 -1.09375 5.28125 -0.8125 C 5.019531 -0.53125 4.710938 -0.3125 4.359375 -0.15625 C 4.015625 0 3.628906 0.078125 3.203125 0.078125 C 2.785156 0.078125 2.398438 0 2.046875 -0.15625 C 1.703125 -0.3125 1.398438 -0.53125 1.140625 -0.8125 C 0.890625 -1.09375 0.691406 -1.414062 0.546875 -1.78125 C 0.410156 -2.144531 0.34375 -2.539062 0.34375 -2.96875 C 0.34375 -3.382812 0.410156 -3.773438 0.546875 -4.140625 C 0.691406 -4.515625 0.890625 -4.835938 1.140625 -5.109375 C 1.398438 -5.390625 1.703125 -5.609375 2.046875 -5.765625 C 2.398438 -5.929688 2.785156 -6.015625 3.203125 -6.015625 C 3.628906 -6.015625 4.015625 -5.929688 4.359375 -5.765625 C 4.710938 -5.609375 5.019531 -5.390625 5.28125 -5.109375 C 5.539062 -4.835938 5.738281 -4.515625 5.875 -4.140625 C 6.019531 -3.773438 6.09375 -3.382812 6.09375 -2.96875 Z M 4.984375 -2.96875 C 4.984375 -3.34375 4.90625 -3.679688 4.75 -3.984375 C 4.601562 -4.296875 4.394531 -4.539062 4.125 -4.71875 C 3.863281 -4.90625 3.554688 -5 3.203125 -5 C 2.859375 -5 2.550781 -4.90625 2.28125 -4.71875 C 2.019531 -4.539062 1.8125 -4.300781 1.65625 -4 C 1.507812 -3.695312 1.4375 -3.351562 1.4375 -2.96875 C 1.4375 -2.582031 1.507812 -2.234375 1.65625 -1.921875 C 1.8125 -1.617188 2.019531 -1.378906 2.28125 -1.203125 C 2.550781 -1.023438 2.859375 -0.9375 3.203125 -0.9375 C 3.554688 -0.9375 3.863281 -1.023438 4.125 -1.203125 C 4.394531 -1.378906 4.601562 -1.617188 4.75 -1.921875 C 4.90625 -2.234375 4.984375 -2.582031 4.984375 -2.96875 Z M 4.984375 -2.96875 "/></g></g></g><g fill="#007b7f" fill-opacity="1"><g transform="translate(61.299301, 230.427477)"><g><path d="M 4.71875 0 C 4.5625 0 4.4375 -0.0625 4.34375 -0.1875 L 2.375 -2.765625 L 3.15625 -3.5625 L 5.171875 -0.875 C 5.253906 -0.769531 5.296875 -0.65625 5.296875 -0.53125 C 5.296875 -0.375 5.234375 -0.242188 5.109375 -0.140625 C 4.992188 -0.046875 4.863281 0 4.71875 0 Z M 4.8125 -5.96875 C 4.945312 -5.96875 5.054688 -5.910156 5.140625 -5.796875 C 5.234375 -5.691406 5.28125 -5.582031 5.28125 -5.46875 C 5.28125 -5.351562 5.226562 -5.242188 5.125 -5.140625 L 1.578125 -1.75 L 1.546875 -2.953125 L 4.40625 -5.78125 C 4.53125 -5.90625 4.664062 -5.96875 4.8125 -5.96875 Z M 1.15625 0 C 1 0 0.875 -0.046875 0.78125 -0.140625 C 0.6875 -0.242188 0.640625 -0.367188 0.640625 -0.515625 L 0.640625 -5.40625 C 0.640625 -5.550781 0.6875 -5.671875 0.78125 -5.765625 C 0.882812 -5.867188 1.015625 -5.921875 1.171875 -5.921875 C 1.335938 -5.921875 1.460938 -5.867188 1.546875 -5.765625 C 1.640625 -5.671875 1.6875 -5.550781 1.6875 -5.40625 L 1.6875 -0.515625 C 1.6875 -0.367188 1.640625 -0.242188 1.546875 -0.140625 C 1.453125 -0.046875 1.320312 0 1.15625 0 Z M 1.15625 0 "/></g></g></g><g fill="#007b7f" fill-opacity="1"><g transform="translate(66.63668, 230.427477)"><g><path d="M 2.546875 0.078125 C 2.148438 0.078125 1.789062 0.03125 1.46875 -0.0625 C 1.15625 -0.164062 0.851562 -0.335938 0.5625 -0.578125 C 0.488281 -0.640625 0.429688 -0.710938 0.390625 -0.796875 C 0.359375 -0.878906 0.34375 -0.957031 0.34375 -1.03125 C 0.34375 -1.164062 0.390625 -1.28125 0.484375 -1.375 C 0.578125 -1.476562 0.691406 -1.53125 0.828125 -1.53125 C 0.929688 -1.53125 1.03125 -1.492188 1.125 -1.421875 C 1.332031 -1.242188 1.539062 -1.109375 1.75 -1.015625 C 1.96875 -0.929688 2.234375 -0.890625 2.546875 -0.890625 C 2.753906 -0.890625 2.941406 -0.921875 3.109375 -0.984375 C 3.285156 -1.046875 3.425781 -1.132812 3.53125 -1.25 C 3.644531 -1.363281 3.703125 -1.488281 3.703125 -1.625 C 3.703125 -1.789062 3.648438 -1.929688 3.546875 -2.046875 C 3.441406 -2.171875 3.285156 -2.273438 3.078125 -2.359375 C 2.867188 -2.441406 2.601562 -2.503906 2.28125 -2.546875 C 1.976562 -2.585938 1.710938 -2.65625 1.484375 -2.75 C 1.253906 -2.84375 1.0625 -2.960938 0.90625 -3.109375 C 0.75 -3.253906 0.628906 -3.421875 0.546875 -3.609375 C 0.472656 -3.804688 0.4375 -4.03125 0.4375 -4.28125 C 0.4375 -4.644531 0.53125 -4.957031 0.71875 -5.21875 C 0.90625 -5.476562 1.160156 -5.675781 1.484375 -5.8125 C 1.804688 -5.945312 2.160156 -6.015625 2.546875 -6.015625 C 2.910156 -6.015625 3.25 -5.957031 3.5625 -5.84375 C 3.882812 -5.738281 4.144531 -5.597656 4.34375 -5.421875 C 4.5 -5.296875 4.578125 -5.148438 4.578125 -4.984375 C 4.578125 -4.859375 4.53125 -4.742188 4.4375 -4.640625 C 4.34375 -4.535156 4.226562 -4.484375 4.09375 -4.484375 C 4.007812 -4.484375 3.9375 -4.507812 3.875 -4.5625 C 3.78125 -4.644531 3.65625 -4.71875 3.5 -4.78125 C 3.351562 -4.851562 3.191406 -4.910156 3.015625 -4.953125 C 2.847656 -5.003906 2.691406 -5.03125 2.546875 -5.03125 C 2.304688 -5.03125 2.101562 -5 1.9375 -4.9375 C 1.769531 -4.882812 1.644531 -4.800781 1.5625 -4.6875 C 1.476562 -4.582031 1.4375 -4.457031 1.4375 -4.3125 C 1.4375 -4.144531 1.484375 -4.003906 1.578125 -3.890625 C 1.679688 -3.785156 1.820312 -3.703125 2 -3.640625 C 2.1875 -3.578125 2.410156 -3.519531 2.671875 -3.46875 C 3.015625 -3.40625 3.3125 -3.328125 3.5625 -3.234375 C 3.820312 -3.148438 4.035156 -3.039062 4.203125 -2.90625 C 4.378906 -2.78125 4.507812 -2.617188 4.59375 -2.421875 C 4.675781 -2.222656 4.71875 -1.976562 4.71875 -1.6875 C 4.71875 -1.320312 4.613281 -1.003906 4.40625 -0.734375 C 4.207031 -0.472656 3.941406 -0.269531 3.609375 -0.125 C 3.273438 0.0078125 2.921875 0.078125 2.546875 0.078125 Z M 2.546875 0.078125 "/></g></g></g></svg>